<?xml version="1.0" encoding="utf-8"?>
<!-- Generator: Adobe Illustrator 27.5.0, SVG Export Plug-In . SVG Version: 6.00 Build 0)  -->
<svg version="1.1" id="Layer_1" xmlns="http://www.w3.org/2000/svg" xmlns:xlink="http://www.w3.org/1999/xlink" x="0px" y="0px"
	 viewBox="0 0 5000 2916" style="enable-background:new 0 0 5000 2916;" xml:space="preserve">
<g>
	<g>
		<defs>
			<rect id="SVGID_1_" x="0" width="5000" height="2916"/>
		</defs>
		<clipPath id="SVGID_00000015344761057173773640000002353538970465515166_">
			<use xlink:href="#SVGID_1_"  style="overflow:visible;"/>
		</clipPath>
		
			<linearGradient id="SVGID_00000048499130054597461020000005546043678003435953_" gradientUnits="userSpaceOnUse" x1="86.0051" y1="2741.5383" x2="4656.3662" y2="311.4445">
			<stop  offset="0" style="stop-color:#33CC66"/>
			<stop  offset="1" style="stop-color:#990099"/>
		</linearGradient>
		
			<rect x="0" style="clip-path:url(#SVGID_00000015344761057173773640000002353538970465515166_);fill:url(#SVGID_00000048499130054597461020000005546043678003435953_);" width="5000" height="2916"/>
	</g>
	<path style="fill:#FFFFFF;" d="M3878.428,2051.782l7.423,0.428l7.802-0.437l-7.27-0.137L3878.428,2051.782z M3827.321,2052.798
		l17.666,1.709c6.627-0.376,13.216-0.745,19.825-1.116c-6.185-0.343-12.491-0.676-18.699-1.019
		C3839.916,2052.497,3833.565,2052.662,3827.321,2052.798z M3800.049,2050.194l7.694,0.73c2.737-0.063,5.513-0.137,8.268-0.198
		l-7.521-0.411C3805.696,2050.269,3802.845,2050.235,3800.049,2050.194z M3782.969,2053.882l21.188,2.926
		c8.532-0.505,16.935-0.964,25.36-1.427c-7.259-0.703-14.603-1.399-21.907-2.098
		C3799.368,2053.491,3791.142,2053.694,3782.969,2053.882z M3751.296,2049.523l17.17,2.364l19.437-0.473l-17.047-1.619
		C3764.321,2049.704,3757.808,2049.616,3751.296,2049.523z M3723.201,2045.653l9.077,1.249l9.532,0.131l-9.277-0.88
		L3723.201,2045.653z M3740.199,2054.929l23.477,4.281c9.407-0.573,18.876-1.163,28.222-1.714l-23.62-3.255L3740.199,2054.929z
		 M3707.172,2048.913l21.645,3.942c8.34-0.207,16.643-0.406,24.956-0.609l-21.701-2.988
		C3723.777,2049.142,3715.505,2049.023,3707.172,2048.913z M3675.972,2043.232l17.206,3.134c6.667,0.084,13.258,0.178,19.869,0.271
		l-17.549-2.406L3675.972,2043.232z M3649.016,2038.315l8.965,1.636l10.026,0.516l-8.698-1.192L3649.016,2038.315z
		 M3698.597,2055.949l25.306,5.791c9.954-0.619,20.033-1.275,30.039-1.911l-25.322-4.615
		C3718.63,2055.455,3708.656,2055.688,3698.597,2055.949z M3665.321,2048.341l23.988,5.484c9.375-0.247,18.639-0.465,27.924-0.684
		l-24.275-4.42C3683.783,2048.585,3674.634,2048.444,3665.321,2048.341z M3633.476,2041.049c7.051,1.62,13.993,3.202,21.037,4.812
		c8.201,0.094,16.341,0.198,24.454,0.309l-21.257-3.875L3633.476,2041.049z M3602.7,2034.01c5.887,1.353,11.619,2.654,17.491,4.005
		l19.533,0.999l-17.466-3.188L3602.7,2034.01z M3576.134,2027.906c3,0.693,6.134,1.426,9.127,2.113l10.51,0.98l-8.994-1.641
		L3576.134,2027.906z M3656.95,2056.97c8.669,2.415,17.643,4.979,26.243,7.357c10.801-0.681,21.64-1.379,32.437-2.061l-26.582-6.083
		C3678.371,2056.439,3667.774,2056.672,3656.95,2056.97z M3624.818,2047.955c8.125,2.271,16.363,4.599,24.458,6.858
		c10.281-0.28,20.349-0.51,30.48-0.755l-25.53-5.842C3644.445,2048.126,3634.554,2048.055,3624.818,2047.955z M3592.782,2038.96
		c7.788,2.189,15.592,4.38,23.365,6.557c9.068,0.093,18.231,0.167,27.362,0.246c-7.918-1.813-15.722-3.589-23.66-5.411
		C3610.847,2039.889,3601.87,2039.42,3592.782,2038.96z M3561.515,2030.191c7.012,1.968,13.985,3.921,20.986,5.885
		c8.091,0.406,16.065,0.823,24.062,1.24c-7.288-1.677-14.348-3.275-21.672-4.964
		C3577.123,2031.629,3569.35,2030.91,3561.515,2030.191z M3531.88,2021.875c5.746,1.615,11.411,3.197,17.148,4.812
		c6.237,0.573,12.577,1.141,18.804,1.714c-5.602-1.292-11.438-2.656-17.056-3.954L3531.88,2021.875z M3506.054,2014.625
		c3.147,0.891,6.237,1.751,9.384,2.636l10.474,1.421l-8.73-2.025L3506.054,2014.625z M3616.579,2058.168l26.555,8.711
		c11.028-0.713,21.984-1.399,32.953-2.098c-8.918-2.48-18.132-5.097-27.113-7.604
		C3638.24,2057.49,3627.293,2057.86,3616.579,2058.168z M3584.355,2047.59c8.609,2.844,17.105,5.615,25.669,8.427
		c10.395-0.301,20.95-0.646,31.39-0.962c-8.49-2.376-17.074-4.791-25.597-7.182
		C3605.345,2047.779,3594.822,2047.685,3584.355,2047.59z M3552.458,2036.951c8.104,2.699,16.446,5.546,24.508,8.218l30.18,0.271
		l-25.023-7.025C3572.276,2037.924,3562.355,2037.441,3552.458,2036.951z M3521.585,2026.556c7.515,2.512,15.229,5.157,22.71,7.65
		c9.131,0.449,18.412,0.877,27.539,1.323c-7.757-2.175-15.446-4.327-23.219-6.515L3521.585,2026.556z M3491.356,2016.377
		c6.84,2.291,13.774,4.649,20.598,6.935l24.174,2.199c-7.082-1.996-14.036-3.928-21.132-5.927L3491.356,2016.377z
		 M3462.647,2006.706c5.616,1.891,11.259,3.796,16.865,5.675l19.038,2.589c-5.867-1.656-11.566-3.234-17.444-4.895
		L3462.647,2006.706z M3437.052,1998.082l10.091,3.401l9.557,1.744c-3.701-1.047-7.454-2.124-11.16-3.177L3437.052,1998.082z
		 M3576.41,2059.391c8.721,3.379,17.388,6.708,26.102,10.072c11.539-0.761,22.865-1.453,34.287-2.183l-27.133-8.904
		C3598.608,2058.708,3587.462,2059.063,3576.41,2059.391z M3544.887,2047.236c8.654,3.348,17.226,6.635,25.871,9.978
		c10.765-0.324,21.587-0.667,32.347-0.991c-8.844-2.904-17.616-5.759-26.528-8.706
		C3566.03,2047.419,3555.482,2047.325,3544.887,2047.236z M3513.383,2035.083c8.469,3.29,16.805,6.467,25.248,9.736
		c10.25,0.085,20.434,0.184,30.621,0.278c-8.324-2.762-17.031-5.766-25.4-8.558
		C3533.707,2036.05,3523.507,2035.572,3513.383,2035.083z M3482.001,2022.953c8.216,3.219,16.226,6.254,24.407,9.436l29.283,1.402
		c-7.992-2.668-16.197-5.47-24.219-8.155L3482.001,2022.953z M3452.001,2011.032c7.36,2.896,14.935,5.975,22.275,8.848l27.566,2.512
		c-7.582-2.543-15.254-5.141-22.849-7.698L3452.001,2011.032z M3422.801,1999.431c6.674,2.634,13.462,5.368,20.114,7.994
		l24.223,3.281l-20.614-6.943L3422.801,1999.431z M3394.719,1988.27c5.638,2.234,11.312,4.504,16.939,6.728l19.356,3.535
		c-5.903-1.989-11.745-3.943-17.659-5.941C3407.157,1991.154,3400.977,1989.724,3394.719,1988.27z M3369.882,1978.401l10.216,4.058
		l10.203,2.365c-3.858-1.307-7.622-2.558-11.485-3.871L3369.882,1978.401z M3535.96,2060.629c8.627,3.881,17.159,7.666,25.766,11.53
		c11.774-0.795,23.472-1.568,35.166-2.337c-8.862-3.422-17.681-6.812-26.55-10.244
		C3558.903,2059.923,3547.445,2060.277,3535.96,2060.629z M3505.236,2046.876c8.64,3.896,17.173,7.667,25.806,11.551
		c11.25-0.353,22.448-0.693,33.643-1.031c-8.853-3.421-17.634-6.785-26.503-10.222
		C3527.21,2047.075,3516.308,2046.962,3505.236,2046.876z M3474.738,2033.229c8.425,3.8,16.713,7.457,25.124,11.243
		c10.788,0.076,21.387,0.191,32.063,0.29c-8.707-3.375-17.289-6.64-26.023-10.04
		C3495.526,2034.223,3485.146,2033.722,3474.738,2033.229z M3444.067,2019.5c8.322,3.771,16.466,7.338,24.775,11.088
		c10.052,0.479,20.067,0.964,30.083,1.443c-8.391-3.266-16.767-6.525-25.194-9.832
		C3463.858,2021.302,3454.025,2020.401,3444.067,2019.5z M3413.529,2005.834c8.068,3.673,15.863,7.052,23.9,10.693
		c9.6,0.869,19.065,1.735,28.57,2.604c-7.804-3.063-15.836-6.322-23.665-9.404L3413.529,2005.834z M3384.438,1992.42
		c7.185,3.292,14.534,6.764,21.699,10.031l27.111,3.664c-7.371-2.91-14.864-5.92-22.255-8.847L3384.438,1992.42z M3356.108,1979.318
		c6.569,3.025,13.222,6.139,19.775,9.145l23.963,4.38c-6.804-2.693-13.635-5.416-20.448-8.124
		C3371.673,1982.933,3363.964,1981.146,3356.108,1979.318z M3328.531,1966.564c5.692,2.63,11.395,5.281,17.081,7.9
		c6.477,1.51,12.812,2.975,19.168,4.443c-5.912-2.354-11.785-4.67-17.708-7.035L3328.531,1966.564z M3305.039,1955.701l9.6,4.437
		l10.411,2.979c-3.296-1.316-6.528-2.577-9.831-3.9C3311.836,1958.051,3308.406,1956.857,3305.039,1955.701z M3495.365,2061.869
		c8.526,4.369,17.148,8.86,25.64,13.177c11.833-0.817,23.878-1.709,35.726-2.532c-8.745-3.926-17.419-7.775-26.185-11.718
		C3518.828,2061.152,3507.17,2061.489,3495.365,2061.869z M3465.645,2046.602c8.474,4.358,16.944,8.717,25.396,13.051
		c11.624-0.38,23.055-0.71,34.587-1.058c-8.797-3.957-17.493-7.801-26.297-11.769
		C3488.139,2046.741,3476.894,2046.669,3465.645,2046.602z M3436.008,2031.373c8.36,4.311,16.668,8.558,25.014,12.852
		c10.969,0.068,22.004,0.121,32.937,0.193c-8.611-3.874-17.085-7.613-25.703-11.499
		C3457.518,2032.4,3446.831,2031.878,3436.008,2031.373z M3406.328,2016.121c8.246,4.269,16.39,8.405,24.62,12.648
		c10.545,0.495,20.948,1.005,31.413,1.505c-8.575-3.869-16.966-7.54-25.562-11.436
		C3426.69,2017.932,3416.443,2017.027,3406.328,2016.121z M3376.592,2000.841c8.118,4.224,16.067,8.224,24.16,12.416
		c9.772,0.879,19.648,1.748,29.436,2.623c-8.281-3.759-16.408-7.342-24.723-11.138L3376.592,2000.841z M3346.892,1985.562
		c7.889,4.13,15.556,7.957,23.414,12.05l27.882,3.766c-7.618-3.479-15.41-7.156-23.048-10.656L3346.892,1985.562z
		 M3318.887,1970.648c7.006,3.697,14.175,7.602,21.167,11.269l26.528,4.849c-7.216-3.318-14.525-6.73-21.761-10.063
		C3336.237,1974.705,3327.527,1972.667,3318.887,1970.648z M3291.086,1955.848c6.533,3.464,13.144,7.029,19.663,10.472
		c7.768,1.812,15.789,3.707,23.577,5.526c-6.846-3.155-13.702-6.329-20.56-9.505
		C3306.225,1960.185,3298.692,1958.034,3291.086,1955.848z M3264.587,1941.744c5.513,2.932,11.043,5.885,16.552,8.808
		c6.288,1.805,12.505,3.583,18.735,5.362c-5.685-2.634-11.319-5.218-17.013-7.868
		C3276.754,1945.931,3270.658,1943.833,3264.587,1941.744z M3242.144,1929.793c3.051,1.63,6.082,3.239,9.133,4.86l10.339,3.571
		c-2.952-1.374-5.842-2.688-8.795-4.067C3249.287,1932.725,3245.675,1931.225,3242.144,1929.793z M3454.682,2063.119
		c8.564,4.928,17.204,9.979,25.712,14.8c11.998-0.843,24.075-1.718,36.051-2.551c-8.618-4.394-17.327-8.905-25.979-13.347
		C3478.529,2062.392,3466.748,2062.718,3454.682,2063.119z M3426.148,2046.434c8.221,4.766,16.56,9.754,24.748,14.474
		c11.866-0.403,23.499-0.741,35.249-1.11c-8.573-4.4-17.141-8.791-25.729-13.216
		C3449.037,2046.522,3437.523,2046.491,3426.148,2046.434z M3397.307,2029.561c8.252,4.817,16.549,9.714,24.786,14.5
		c11.187,0.056,22.506,0.087,33.697,0.139c-8.517-4.385-16.975-8.697-25.503-13.102
		C3419.317,2030.583,3408.343,2030.067,3397.307,2029.561z M3368.586,2012.761c8.131,4.771,16.242,9.505,24.36,14.25
		c10.774,0.493,21.551,0.99,32.28,1.489c-8.423-4.354-16.742-8.561-25.176-12.937L3368.586,2012.761z M3339.725,1995.877
		c8.059,4.754,16.045,9.37,24.089,14.093l30.662,2.729c-8.355-4.333-16.545-8.437-24.925-12.805L3339.725,1995.877z
		 M3310.816,1978.968c7.934,4.709,15.711,9.151,23.625,13.823l28.819,3.873c-8.028-4.192-15.975-8.275-24.028-12.503
		L3310.816,1978.968z M3282.329,1962.07c7.528,4.5,15.032,8.958,22.537,13.421l27.519,5.025c-7.445-3.911-15.045-8.04-22.51-11.982
		C3300.692,1966.377,3291.42,1964.194,3282.329,1962.07z M3255.176,1945.573c6.846,4.119,13.825,8.461,20.656,12.55
		c8.559,2.006,17.269,4.052,25.909,6.082c-7.151-3.786-14.377-7.67-21.551-11.473
		C3271.878,1950.359,3263.599,1948,3255.176,1945.573z M3228.209,1929.189c6.43,3.89,12.927,7.885,19.347,11.755
		c7.643,2.202,15.148,4.337,22.685,6.495c-6.654-3.536-13.31-7.084-19.979-10.641L3228.209,1929.189z M3202.643,1913.654
		c5.358,3.255,10.72,6.526,16.067,9.764c6.095,2.104,12.164,4.198,18.24,6.291c-5.508-2.941-10.963-5.811-16.475-8.769
		C3214.513,1918.494,3208.563,1916.066,3202.643,1913.654z M3180.868,1900.422c3.002,1.833,5.99,3.641,8.994,5.469l10.059,4.109
		c-2.957-1.588-5.854-3.093-8.808-4.687C3187.723,1903.714,3184.255,1902.025,3180.868,1900.422z M3414.398,2064.594
		c8.557,5.493,17.049,10.826,25.55,16.191c12.088-0.865,24.109-1.713,36.138-2.557c-8.532-4.854-17.238-10-25.819-14.947
		C3438.382,2063.697,3426.267,2064.183,3414.398,2064.594z M3386.593,2046.263c8.059,5.249,16.321,10.932,24.349,16.101
		c11.77-0.412,23.755-0.886,35.535-1.295c-8.297-4.791-16.729-9.818-25.057-14.655
		C3409.843,2046.357,3398.208,2046.309,3386.593,2046.263z M3358.742,2027.844c8.059,5.291,16.222,10.802,24.263,16.05
		c11.465,0.045,22.932,0.088,34.361,0.145c-8.362-4.863-16.764-9.805-25.14-14.706
		C3381.103,2028.832,3369.862,2028.344,3358.742,2027.844z M3330.854,2009.397c8.017,5.297,16.065,10.661,24.062,15.916
		c10.949,0.493,22.001,0.973,32.948,1.468c-8.272-4.837-16.529-9.649-24.817-14.514
		C3352.328,2011.31,3341.635,2010.357,3330.854,2009.397z M3302.934,1990.936c7.945,5.271,15.863,10.494,23.786,15.727
		c10.573,0.937,21.044,1.875,31.554,2.813c-8.237-4.84-16.395-9.546-24.645-14.417L3302.934,1990.936z M3274.927,1972.408
		c7.867,5.259,15.644,10.32,23.49,15.538l29.924,4.022c-8.158-4.823-16.17-9.381-24.36-14.25L3274.927,1972.408z M3246.628,1953.697
		c7.828,5.269,15.493,10.185,23.297,15.405l28.106,5.14c-7.663-4.567-15.435-9.307-23.125-13.911
		C3265.495,1958.123,3256.003,1955.888,3246.628,1953.697z M3220.089,1935.533c6.934,4.701,14.03,9.759,20.952,14.429l27.373,6.423
		c-7.234-4.339-14.601-8.907-21.849-13.275C3237.757,1940.595,3229.043,1938.12,3220.089,1935.533z M3193.467,1917.202
		c6.802,4.639,13.7,9.492,20.484,14.102c8.423,2.437,16.691,4.797,24.988,7.171c-7.062-4.261-14.195-8.635-21.275-12.924
		C3209.611,1922.774,3201.571,1920.009,3193.467,1917.202z M3167.426,1899.266c6.252,4.291,12.541,8.665,18.782,12.935
		c7.362,2.552,14.65,5.064,21.954,7.579c-6.472-3.932-12.942-7.855-19.428-11.806L3167.426,1899.266z M3142.624,1882.183
		c5.244,3.622,10.481,7.224,15.718,10.828l17.605,7.191c-5.439-3.322-10.821-6.546-16.267-9.884
		C3153.979,1887.59,3148.294,1884.877,3142.624,1882.183z M3121.094,1867.358c3.071,2.132,6.111,4.198,9.178,6.324l9.391,4.477
		c-3.394-2.088-6.714-4.051-10.115-6.146C3126.743,1870.477,3123.894,1868.885,3121.094,1867.358z M3374.536,2066.045
		c8.277,5.927,16.529,11.766,24.779,17.619c12.312-0.9,24.407-1.729,36.625-2.595c-8.548-5.394-17.096-10.783-25.712-16.325
		C3398.38,2065.166,3386.405,2065.619,3374.536,2066.045z M3347.004,2046.09c8.129,5.916,16.292,11.922,24.382,17.718
		c11.801-0.423,23.687-0.877,35.468-1.292c-8.118-5.246-16.451-10.959-24.604-16.276
		C3370.512,2046.19,3358.816,2046.133,3347.004,2046.09z M3320.151,2026.119c7.849,5.77,15.836,11.899,23.665,17.602
		c11.682,0.036,23.239,0.104,34.854,0.152c-8.142-5.319-16.392-10.874-24.557-16.239
		C3342.819,2027.129,3331.484,2026.625,3320.151,2026.119z M3293.177,2006.064c7.851,5.807,15.765,11.786,23.6,17.551
		c11.187,0.495,22.369,0.988,33.516,1.494c-8.122-5.343-16.285-10.775-24.42-16.155
		C3314.993,2007.992,3304.127,2007.023,3293.177,2006.064z M3266.208,1986c7.793,5.807,15.592,11.624,23.369,17.383
		c10.75,0.943,21.463,1.891,32.161,2.839c-8.073-5.343-16.128-10.639-24.219-16.013L3266.208,1986z M3239.131,1965.865
		c7.748,5.802,15.442,11.473,23.172,17.233l30.7,4.119c-8.033-5.343-15.982-10.509-24.042-15.899L3239.131,1965.865z
		 M3211.763,1945.516c7.748,5.848,15.375,11.382,23.1,17.18l29.102,5.316c-8.017-5.368-15.895-10.44-23.932-15.868
		L3211.763,1945.516z M3185.136,1925.363c7.297,5.555,14.592,11.107,21.874,16.611l27.687,6.5
		c-7.21-4.877-14.594-10.12-21.824-15.03C3203.665,1930.767,3194.288,1928.008,3185.136,1925.363z M3159.539,1905.49
		c6.815,5.229,13.738,10.759,20.537,15.945c8.788,2.547,17.758,5.177,26.622,7.759c-7.167-4.879-14.435-9.977-21.62-14.888
		C3176.584,1911.38,3168.134,1908.479,3159.539,1905.49z M3133.843,1885.544c6.622,5.113,13.308,10.383,19.912,15.462
		c8.104,2.816,16.061,5.546,24.066,8.3c-6.876-4.713-13.794-9.503-20.686-14.242
		C3149.383,1891.897,3141.642,1888.741,3133.843,1885.544z M3108.636,1865.978c6.095,4.734,12.202,9.489,18.289,14.196
		c7.073,2.906,14.092,5.765,21.125,8.629c-6.351-4.374-12.676-8.706-19.038-13.106L3108.636,1865.978z M3084.386,1847.153
		c5.188,4.046,10.335,8.014,15.511,12.041c5.596,2.678,11.176,5.326,16.76,7.994c-5.495-3.818-10.92-7.479-16.428-11.312
		C3094.94,1852.954,3089.656,1850.042,3084.386,1847.153z M3062.747,1830.358c3.242,2.541,6.443,4.973,9.683,7.51l8.261,4.55
		c-4.289-3-8.485-5.796-12.781-8.811C3066.193,1832.53,3064.458,1831.425,3062.747,1830.358z M3334.54,2067.51
		c8.017,6.37,16.029,12.728,24.046,19.087c12.427-0.928,24.631-1.771,36.957-2.666c-8.308-5.89-16.612-11.759-24.956-17.738
		C3358.597,2066.624,3346.587,2067.061,3334.54,2067.51z M3307.386,2045.923c8.147,6.593,16.211,12.889,24.322,19.336
		c11.942-0.446,23.837-0.875,35.728-1.306c-8.106-5.827-16.321-11.946-24.468-17.877
		C3331.087,2046.028,3319.369,2045.951,3307.386,2045.923z M3281.533,2024.395c7.631,6.25,15.404,12.993,23.01,19.16
		c11.875,0.026,23.474,0.103,35.237,0.15c-7.914-5.77-15.971-11.941-23.905-17.774
		C3304.434,2025.417,3293.05,2024.901,3281.533,2024.395z M3255.577,2002.783c7.636,6.307,15.345,12.873,22.968,19.123
		c11.391,0.5,22.64,1.01,33.959,1.516c-7.929-5.839-15.931-11.874-23.876-17.758
		C3277.65,2004.705,3266.567,2003.748,3255.577,2002.783z M3229.531,1981.094c7.622,6.339,15.265,12.759,22.871,19.05
		c10.853,0.948,21.786,1.896,32.623,2.844c-7.898-5.853-15.805-11.743-23.717-17.638L3229.531,1981.094z M3203.394,1959.332
		c7.589,6.352,15.155,12.623,22.728,18.93l31.283,4.181c-7.875-5.873-15.711-11.629-23.604-17.551L3203.394,1959.332z
		 M3177.001,1937.355c7.6,6.409,15.121,12.555,22.705,18.907l29.832,5.453c-7.909-5.935-15.713-11.581-23.647-17.581
		L3177.001,1937.355z M3150.563,1915.283c7.504,6.391,14.902,12.379,22.387,18.702l28.189,6.614
		c-7.383-5.593-14.848-11.416-22.246-17.061C3169.473,1920.799,3159.949,1918.008,3150.563,1915.283z M3125.988,1893.875
		c6.748,5.787,13.608,11.983,20.345,17.723c9.115,2.649,18.356,5.353,27.507,8.018c-7.06-5.396-14.238-11.112-21.313-16.545
		C3143.696,1900.021,3134.915,1896.989,3125.988,1893.875z M3101.04,1872.143c6.69,5.781,13.447,11.797,20.127,17.536
		c8.557,2.989,17.078,5.952,25.577,8.899c-7.019-5.396-14.099-10.962-21.127-16.395
		C3117.439,1878.851,3109.297,1875.544,3101.04,1872.143z M3076.214,1850.517c6.438,5.598,12.9,11.269,19.325,16.832
		c7.788,3.214,15.455,6.322,23.156,9.462c-6.717-5.203-13.438-10.415-20.17-15.655
		C3091.102,1857.619,3083.684,1854.094,3076.214,1850.517z M3051.704,1829.166c5.966,5.223,11.918,10.378,17.872,15.566
		c6.775,3.25,13.483,6.441,20.21,9.64c-6.279-4.897-12.512-9.666-18.804-14.598
		C3064.557,1836.237,3058.138,1832.711,3051.704,1829.166z M3027.835,1808.371c5.17,4.552,10.288,8.927,15.446,13.457
		c5.257,2.906,10.496,5.779,15.742,8.666c-5.674-4.458-11.259-8.666-16.939-13.15
		C3037.325,1814.34,3032.579,1811.351,3027.835,1808.371z M3005.766,1789.145c3.522,3.123,6.983,6.04,10.501,9.149l7.855,4.947
		c-3.419-2.714-6.918-5.64-10.344-8.363C3011.109,1792.961,3008.427,1791.042,3005.766,1789.145z M3293.893,2068.994
		c7.903,7.034,15.769,13.888,23.645,20.794c12.411-0.942,25.093-1.975,37.501-2.917c-8.066-6.404-16.137-12.794-24.216-19.226
		C3318.506,2068.093,3306.292,2068.52,3293.893,2068.994z M3268.441,2045.903c7.611,6.869,15.289,14.056,22.878,20.832
		c12.319-0.474,24.438-0.891,36.668-1.34c-8.115-6.467-16.218-12.878-24.375-19.486
		C3291.96,2045.892,3280.103,2045.92,3268.441,2045.903z M3243.104,2022.698c7.573,6.901,15.202,14.014,22.766,20.852
		c11.552,0.009,23.346-0.026,34.894-0.011c-7.674-6.228-15.502-13.008-23.203-19.319
		C3266.071,2023.714,3254.68,2023.198,3243.104,2022.698z M3217.762,1999.488c7.553,6.926,15.108,13.872,22.647,20.741
		c11.467,0.491,22.779,1.001,34.164,1.501c-7.698-6.319-15.482-12.938-23.192-19.31L3217.762,1999.488z M3192.232,1976.11
		c7.575,7.005,15.112,13.821,22.672,20.763l33.302,2.901c-7.705-6.369-15.442-12.858-23.156-19.279L3192.232,1976.11z
		 M3166.675,1952.618c7.535,7.036,14.993,13.744,22.51,20.7l32.462,4.344c-7.696-6.407-15.368-12.754-23.075-19.211
		L3166.675,1952.618z M3142.026,1929.147c7.158,6.744,14.395,13.826,21.537,20.508l31.328,5.729
		c-7.723-6.478-15.388-12.711-23.129-19.257C3161.857,1933.802,3152.006,1931.496,3142.026,1929.147z M3117.273,1905.578
		c7.12,6.758,14.267,13.653,21.381,20.355c9.756,2.297,19.374,4.547,29.059,6.823c-7.553-6.389-15.061-12.619-22.631-19.071
		C3135.832,1910.994,3126.519,1908.27,3117.273,1905.578z M3092.602,1882.09c6.99,6.688,13.971,13.321,20.954,19.957l27.299,7.951
		c-6.954-5.931-14.032-12.3-20.995-18.284C3110.795,1888.522,3101.603,1885.247,3092.602,1882.09z M3067.958,1858.626
		c6.846,6.592,13.639,12.95,20.475,19.493c8.792,3.083,17.758,6.274,26.608,9.393c-6.929-5.959-13.926-12.175-20.867-18.175
		C3085.444,1865.776,3076.797,1862.28,3067.958,1858.626z M3043.046,1834.701c6.752,6.557,13.464,12.941,20.201,19.441
		c8.568,3.546,16.959,6.947,25.425,10.4c-6.826-5.913-13.675-11.911-20.517-17.868
		C3059.799,1842.694,3051.484,1838.763,3043.046,1834.701z M3019.527,1811.448c6.116,5.995,12.297,12.245,18.403,18.191
		c7.927,3.824,15.738,7.514,23.589,11.249c-6.58-5.739-13.135-11.399-19.726-17.181
		C3034.384,1819.636,3026.983,1815.583,3019.527,1811.448z M2996.335,1788.53c5.67,5.589,11.359,11.275,17.022,16.826
		c6.705,3.718,13.352,7.358,20.013,11.013c-6.255-5.498-12.442-10.758-18.71-16.294
		C3008.553,1796.233,3002.458,1792.404,2996.335,1788.53z M2973.849,1766.309c4.905,4.863,9.799,9.686,14.698,14.525
		c4.863,3.082,9.703,6.112,14.545,9.16c-5.441-4.823-10.86-9.577-16.305-14.431
		C2982.471,1772.469,2978.16,1769.398,2973.849,1766.309z M2953.24,1745.941c3.318,3.312,6.611,6.51,9.929,9.811
		c2.863,2.058,5.721,4.094,8.584,6.14c-3.248-2.906-6.548-5.989-9.799-8.91C2959.044,1750.63,2956.141,1748.279,2953.24,1745.941z
		 M3253.995,2070.462c7.584,7.556,15.144,14.978,22.717,22.503c12.469-0.959,25.059-1.965,37.499-2.918
		c-7.929-6.947-15.841-13.841-23.802-20.929C3278.245,2069.576,3266.264,2069.979,3253.995,2070.462z M3229.213,2045.914
		c7.517,7.525,14.993,14.809,22.501,22.288c12.16-0.48,24.066-0.891,36.123-1.343c-7.6-6.792-15.305-14.067-22.927-20.956
		C3253.066,2045.898,3241.079,2045.92,3229.213,2045.914z M3204.226,2021.094c7.566,7.661,15.061,14.909,22.611,22.464
		c11.801,0.006,23.716-0.015,35.502-0.009c-7.62-6.895-15.298-14.044-22.936-21.002
		C3227.74,2022.052,3215.892,2021.583,3204.226,2021.094z M3180.041,1996.201c7.257,7.422,14.556,15.086,21.798,22.435
		c11.57,0.483,23.311,0.957,34.872,1.442c-7.609-6.943-15.231-13.931-22.854-20.929
		C3202.58,1998.17,3191.389,1997.18,3180.041,1996.201z M3155.802,1971.251c7.241,7.462,14.494,14.962,21.723,22.367
		c11.241,0.969,22.313,1.944,33.475,2.918c-7.645-7.019-15.249-13.894-22.907-20.982L3155.802,1971.251z M3131.433,1946.172
		c7.246,7.531,14.471,14.882,21.708,22.345l31.908,4.249c-7.555-6.997-15.076-13.851-22.647-20.928L3131.433,1946.172z
		 M3106.883,1920.903c7.266,7.614,14.467,14.82,21.723,22.362l30.689,5.609c-7.252-6.786-14.583-13.951-21.849-20.8
		C3127.248,1925.678,3117.184,1923.331,3106.883,1920.903z M3083.007,1895.595c6.934,7.327,13.904,14.908,20.824,22.168
		c10.198,2.405,20.147,4.729,30.24,7.097c-7.241-6.832-14.525-13.84-21.775-20.73L3083.007,1895.595z M3059.387,1870.364
		c6.815,7.264,13.657,14.654,20.459,21.857l28.738,8.374c-7.158-6.802-14.305-13.582-21.475-20.44
		C3077.891,1876.904,3068.576,1873.597,3059.387,1870.364z M3035.812,1845.189c6.698,7.192,13.388,14.306,20.082,21.445
		c8.97,3.156,18.049,6.38,27.046,9.546c-7.037-6.745-14.03-13.264-21.084-20.071
		C3053.219,1852.507,3044.411,1848.763,3035.812,1845.189z M3012.234,1820.006c6.564,7.108,13.086,13.929,19.645,20.982
		c8.32,3.457,16.805,7.051,25.187,10.559c-6.842-6.608-13.691-13.295-20.542-19.96
		C3028.434,1827.733,3020.421,1823.969,3012.234,1820.006z M2988.605,1794.43c6.383,6.963,12.749,13.853,19.121,20.759
		c7.963,3.857,15.798,7.577,23.676,11.336c-6.477-6.312-13.014-12.91-19.502-19.273
		C3004.15,1802.997,2996.434,1798.789,2988.605,1794.43z M2966.037,1769.454c5.898,6.478,11.823,13.165,17.717,19.603
		c7.385,4.119,14.664,8.081,21.972,12.096c-6.226-6.117-12.474-12.331-18.71-18.49
		C2980.035,1778.282,2973.069,1773.922,2966.037,1769.454z M2943.73,1744.76c5.486,6.078,10.971,12.175,16.455,18.212
		c6.387,4.067,12.709,8.018,19.042,11.992c-5.883-5.822-11.745-11.561-17.632-17.42
		C2955.646,1753.295,2949.705,1749.065,2943.73,1744.76z M2921.933,1720.632c4.795,5.347,9.563,10.571,14.348,15.884
		c4.898,3.534,9.761,6.994,14.633,10.466c-5.434-5.426-10.819-10.609-16.258-16.065
		C2930.418,1727.49,2926.186,1724.085,2921.933,1720.632z M2901.485,1698.001c3.403,3.82,6.777,7.462,10.178,11.268
		c2.477,2.016,4.943,3.989,7.412,5.99c-3.643-3.678-7.335-7.562-10.985-11.255
		C2905.888,1701.994,2903.691,1700.01,2901.485,1698.001z M3213.774,2072.165c7.246,7.968,14.509,16.122,21.746,24.007
		c12.718-0.999,25.398-1.984,38.06-2.963c-7.616-7.562-15.218-15.019-22.833-22.612
		C3238.512,2071.098,3226.007,2071.665,3213.774,2072.165z M3190.006,2045.929c7.241,8.015,14.476,16.009,21.712,23.966
		c12.164-0.495,24.586-1.056,36.748-1.551c-7.553-7.527-15.081-14.848-22.64-22.424
		C3213.908,2045.914,3201.968,2045.923,3190.006,2045.929z M3166.076,2019.517c7.279,8.13,14.525,16.009,21.793,24.059
		c11.886-0.011,23.739-0.017,35.576-0.017c-7.562-7.576-15.09-14.928-22.672-22.611
		C3189.243,2020.47,3177.64,2019.995,3166.076,2019.517z M3142.348,1992.967c7.178,8.107,14.344,16.086,21.51,24.101
		c11.51,0.478,23.053,0.949,34.527,1.426c-7.299-7.41-14.655-15.128-21.97-22.612
		C3165.11,1994.91,3153.692,1993.941,3142.348,1992.967z M3119.141,1966.371c6.986,7.968,14,16.15,20.979,24.039
		c11.236,0.963,22.573,1.927,33.787,2.891c-7.297-7.468-14.612-15.024-21.916-22.555L3119.141,1966.371z M3095.835,1939.661
		c6.988,8.042,13.978,16.052,20.959,24.02l32.536,4.332c-7.313-7.545-14.612-14.965-21.937-22.575L3095.835,1939.661z
		 M3072.398,1912.811c6.997,8.118,13.962,15.961,20.948,24.003l31.22,5.713c-7.346-7.641-14.635-14.916-21.99-22.634
		C3092.492,1917.524,3082.601,1915.217,3072.398,1912.811z M3049.09,1885.711c6.889,8.066,13.765,16.049,20.643,24.043
		c10.068,2.375,19.892,4.677,29.85,7.014c-6.99-7.341-14.045-15.07-21.049-22.475
		C3068.722,1891.434,3058.961,1888.595,3049.09,1885.711z M3026.374,1858.709c6.654,7.868,13.33,15.949,19.984,23.747
		c9.73,2.847,19.347,5.646,29.019,8.461c-6.938-7.352-13.899-14.856-20.849-22.268
		C3045.16,1865.348,3035.742,1862.016,3026.374,1858.709z M3003.628,1831.692c6.587,7.848,13.171,15.679,19.751,23.466
		c9.205,3.244,18.457,6.519,27.655,9.759c-6.862-7.323-13.713-14.593-20.587-21.976
		C3021.531,1839.211,3012.519,1835.399,3003.628,1831.692z M2980.853,1804.627c6.495,7.811,12.967,15.373,19.459,23.117
		c8.689,3.624,17.486,7.342,26.2,10.993c-6.761-7.286-13.487-14.296-20.26-21.643
		C2997.813,1812.964,2989.249,1808.705,2980.853,1804.627z M2958.446,1777.709c6.221,7.54,12.422,14.956,18.639,22.433
		c8.136,3.965,16.419,8.072,24.607,12.089c-6.47-7.025-12.96-14.218-19.439-21.3
		C2974.336,1786.551,2966.427,1782.176,2958.446,1777.709z M2936.749,1751.01c5.856,7.159,11.745,14.539,17.596,21.652
		c7.69,4.306,15.393,8.635,23.051,12.895c-6.248-6.832-12.521-13.888-18.773-20.774
		C2951.346,1760.21,2944.104,1755.706,2936.749,1751.01z M2914.92,1724.147c5.726,7.056,11.458,14.135,17.179,21.139
		c6.95,4.447,13.79,8.703,20.667,13.014c-6.024-6.645-12.052-13.316-18.087-20.012
		C2928.107,1733.599,2921.552,1728.955,2914.92,1724.147z M2893.181,1697.391c5.367,6.665,10.718,13.17,16.081,19.794
		c6.033,4.38,11.994,8.601,17.97,12.857c-5.726-6.379-11.433-12.581-17.164-19.002
		C2904.446,1706.52,2898.835,1702.014,2893.181,1697.391z M2871.617,1670.842c4.78,5.983,9.523,11.666,14.301,17.612
		c4.65,3.807,9.257,7.505,13.875,11.218c-5.051-5.67-10.084-11.274-15.139-16.977
		C2880.311,1678.758,2875.975,1674.847,2871.617,1670.842z M2854.767,1649.386c2.654,3.344,5.324,6.829,7.974,10.161
		c2.764,2.541,5.504,5.004,8.25,7.499c-2.845-3.229-5.703-6.568-8.553-9.801C2859.879,1654.614,2857.321,1652.016,2854.767,1649.386
		z M3173.497,2073.869c6.981,8.452,13.982,17.164,20.957,25.501c12.788-1.019,25.375-1.972,38.078-2.963
		c-7.272-7.937-14.572-16.101-21.849-24.111C3198.347,2072.801,3185.86,2073.352,3173.497,2073.869z M3150.648,2045.946
		c6.995,8.541,13.998,17.178,20.984,25.646c12.308-0.515,24.723-1.056,37-1.562c-7.279-8.015-14.556-16.035-21.836-24.101
		C3174.739,2045.935,3162.776,2045.923,3150.648,2045.946z M3127.729,2017.932c7.003,8.63,13.996,17.108,20.993,25.654
		c12.061-0.017,23.952-0.006,35.941-0.011c-7.315-8.104-14.604-16.009-21.923-24.195
		C3151.081,2018.896,3139.45,2018.406,3127.729,2017.932z M3104.856,1989.77c6.965,8.691,13.922,17.138,20.88,25.727
		c11.646,0.469,23.199,0.957,34.787,1.436c-7.19-8.05-14.379-16.118-21.58-24.257L3104.856,1989.77z M3082.576,1961.514
		c6.755,8.507,13.53,17.293,20.275,25.721c11.281,0.962,22.613,1.921,33.865,2.884c-7.035-7.962-14.099-16.185-21.141-24.221
		L3082.576,1961.514z M3060.216,1933.147c6.757,8.597,13.514,17.195,20.266,25.71l32.744,4.348
		c-7.044-8.046-14.092-16.112-21.145-24.231L3060.216,1933.147z M3037.686,1904.577c6.781,8.708,13.55,17.149,20.322,25.773
		l31.585,5.776c-7.066-8.135-14.104-16.046-21.174-24.263C3058.248,1909.458,3047.81,1906.969,3037.686,1904.577z
		 M3015.483,1875.915c6.622,8.587,13.242,17.174,19.854,25.678c10.023,2.37,20.345,4.834,30.413,7.218
		c-6.912-8.047-13.837-16.174-20.76-24.298C3035.144,1881.644,3025.409,1878.82,3015.483,1875.915z M2993.607,1847.142
		c6.49,8.505,12.994,17.196,19.482,25.617c9.817,2.88,19.432,5.666,29.162,8.504c-6.752-7.931-13.53-16.113-20.293-24.113
		C3012.519,1853.823,3003.076,1850.496,2993.607,1847.142z M2971.655,1818.282c6.454,8.53,12.904,16.991,19.354,25.445
		c9.344,3.307,18.648,6.585,27.96,9.872c-6.71-7.947-13.42-15.903-20.134-23.917
		C2989.796,1825.895,2980.696,1822.061,2971.655,1818.282z M2949.602,1789.284c6.409,8.552,12.801,16.776,19.204,25.248
		c8.887,3.722,17.825,7.482,26.712,11.201c-6.658-7.952-13.29-15.68-19.959-23.704
		C2966.927,1797.8,2958.212,1793.488,2949.602,1789.284z M2928.293,1760.581c6.039,8.124,12.088,16.45,18.118,24.507
		c8.423,4.114,16.935,8.326,25.378,12.461c-6.331-7.635-12.671-15.362-19.006-23.06
		C2944.636,1769.877,2936.406,1765.143,2928.293,1760.581z M2907.376,1732.094c5.831,7.917,11.667,15.966,17.491,23.82
		c7.889,4.443,15.888,9.036,23.813,13.53c-6.049-7.364-12.124-14.957-18.184-22.371
		C2922.823,1742.135,2915.05,1737.021,2907.376,1732.094z M2886.496,1703.666c5.645,7.724,11.277,15.363,16.915,23.029
		c7.4,4.763,14.946,9.768,22.374,14.576c-6.048-7.422-12.104-14.863-18.157-22.342
		C2900.604,1713.882,2893.571,1708.827,2886.496,1703.666z M2865.396,1674.935c5.463,7.536,10.897,14.78,16.352,22.264
		c6.737,4.916,13.505,9.894,20.219,14.763c-5.903-7.306-11.785-14.414-17.695-21.772
		C2877.995,1685.148,2871.738,1680.149,2865.396,1674.935z M2845.322,1646.933c4.795,6.676,9.611,13.639,14.399,20.273
		c5.8,4.776,11.543,9.411,17.284,14.047c-5.295-6.619-10.606-13.312-15.906-19.977
		C2855.854,1656.536,2850.613,1651.823,2845.322,1646.933z M2826.556,1620.49c4.098,5.753,8.203,11.612,12.301,17.335
		c4.486,4.156,8.925,8.145,13.368,12.154c-4.273-5.388-8.568-10.939-12.848-16.35
		C2835.108,1629.264,2830.84,1624.931,2826.556,1620.49z M2810.011,1597.186c2.567,3.63,5.134,7.238,7.705,10.852
		c2.677,2.781,5.335,5.472,8.001,8.197c-2.764-3.52-5.528-7.036-8.297-10.562C2814.952,1602.83,2812.484,1600.044,2810.011,1597.186
		z M3964.253,2050.737l7.604-0.661c-3.033,0.052-6.1,0.108-9.162,0.165l-6.163,0.35L3964.253,2050.737z M3922.555,2054.344
		c6.497-0.582,12.895-1.124,19.313-1.672l-16.773-0.312c-6.217,0.349-12.411,0.693-18.648,1.047
		C3911.81,2053.72,3917.161,2054.038,3922.555,2054.344z M3880.959,2057.995c8.508-0.776,16.917-1.516,25.295-2.239
		c-6.851-0.39-13.577-0.796-20.417-1.188c-8.469,0.469-16.93,0.938-25.463,1.432L3880.959,2057.995z M3840.55,2061.838
		c9.281-0.859,18.699-1.771,28.074-2.671l-23.716-2.297c-9.512,0.526-19.002,1.042-28.637,1.609L3840.55,2061.838z
		 M3799.56,2065.739c10.234-0.963,20.531-1.953,30.787-2.927l-26.317-3.64c-10.203,0.573-20.401,1.15-30.767,1.781L3799.56,2065.739
		z M3758.485,2069.65c10.844-1.042,21.641-2.061,32.439-3.088l-27.393-4.989c-10.514,0.666-21.091,1.358-31.565,2.01
		C3740.829,2065.614,3749.708,2067.651,3758.485,2069.65z M3716.953,2073.604c11.447-1.121,22.723-2.169,34.067-3.241
		c-9.052-2.068-18.195-4.166-27.326-6.255c-11.162,0.71-22.354,1.429-33.536,2.135
		C3699.097,2068.702,3707.932,2071.109,3716.953,2073.604z M3675.607,2077.541c11.74-1.167,23.163-2.209,34.746-3.307
		c-9.241-2.558-18.206-4.99-27.411-7.531c-11.247,0.713-22.472,1.416-33.789,2.15L3675.607,2077.541z M3634.44,2081.779
		c11.689-1.178,23.656-2.469,35.379-3.662l-27.001-8.858c-11.682,0.74-23.257,1.448-35.058,2.23
		C3616.671,2074.936,3625.6,2078.399,3634.44,2081.779z M3592.84,2086.085c12.104-1.238,24.342-2.535,36.437-3.77
		c-8.992-3.448-18.076-6.963-27.14-10.469c-11.942,0.777-23.802,1.533-35.863,2.35
		C3575.161,2078.191,3584.079,2082.221,3592.84,2086.085z M3551.505,2090.366c12.229-1.271,24.456-2.541,36.638-3.791
		c-8.864-3.911-17.876-7.989-26.862-12.025c-12.025,0.833-24.228,1.734-36.244,2.568
		C3533.909,2081.602,3542.666,2085.924,3551.505,2090.366z M3510.166,2094.646c12.384-1.306,24.609-2.552,36.905-3.822
		c-8.862-4.453-17.679-8.864-26.593-13.384c-12.079,0.843-24.248,1.718-36.354,2.572
		C3492.813,2084.909,3501.436,2089.69,3510.166,2094.646z M3468.611,2098.949c12.637-1.353,24.943-2.578,37.457-3.88
		c-8.802-5.004-17.486-9.801-26.252-14.749c-12.158,0.86-24.297,1.708-36.515,2.588
		C3451.725,2088.22,3460.152,2093.548,3468.611,2098.949z M3427.159,2103.453c12.514-1.359,25.149-2.77,37.623-4.11
		c-8.523-5.446-17.009-10.8-25.494-16.154c-12.328,0.88-24.521,1.709-36.952,2.619
		C3410.603,2091.674,3418.875,2097.542,3427.159,2103.453z M3385.656,2108.083c12.572-1.379,25.353-2.855,37.916-4.229
		c-8.351-5.964-16.679-11.874-25.01-17.778c-12.451,0.9-24.707,1.729-37.268,2.671L3385.656,2108.083z M3343.67,2112.77
		c12.853-1.433,25.763-2.89,38.575-4.307c-8.167-6.483-16.33-12.968-24.494-19.44c-12.494,0.948-25.254,1.984-37.748,2.938
		C3327.886,2098.876,3335.779,2105.827,3343.67,2112.77z M3301.466,2117.482c13.056-1.473,26.005-2.904,38.988-4.352
		c-7.927-6.985-15.859-13.963-23.781-20.91c-12.525,0.959-25.191,1.963-37.746,2.937
		C3286.448,2102.641,3293.976,2110.187,3301.466,2117.482z M3259.689,2122.143c13.041-1.488,25.802-2.869,38.739-4.322
		c-7.523-7.333-15.087-14.91-22.64-22.42c-12.729,0.986-25.479,1.976-38.27,2.98
		C3244.919,2106.411,3252.297,2114.198,3259.689,2122.143z M3217.856,2126.892c13.054-1.51,25.905-2.941,38.871-4.415
		c-7.403-7.962-14.789-15.811-22.203-23.866c-12.738,0.993-25.362,1.952-38.185,2.973
		C3203.517,2110.114,3210.675,2118.393,3217.856,2126.892z M0,2616.674c203.985-23.231,409.854-53.405,617.336-91.645
		c978.452-180.322,1838.858-309.758,2597.688-397.798c-7.212-8.546-14.402-16.843-21.612-25.419
		c-739.792,59.082-1576.396,151.668-2526.052,286.052c-223.7,32.438-446.315,55.992-667.361,71.964v-2.369
		c220.936-15.968,443.441-39.505,667.029-71.928c948.968-134.284,1785.233-226.893,2524.501-285.938
		c-6.988-8.357-13.998-17.134-20.99-25.6c-720.416,30.116-1533.158,85.964-2453.583,174.384v0.006
		c-239.465,24.7-478.712,39.818-716.957,46.937v-2.36c238.169-7.117,477.331-22.232,716.713-46.924h0.009
		c919.718-88.349,1731.85-144.16,2451.953-174.318c-7.021-8.519-14.056-17.184-21.087-25.771
		c-701.047,1.223-1490.063,20.439-2381.043,62.949C511.701,2123.795,255.79,2128.617,0,2125.3v-2.359
		c255.747,3.321,511.615-1.499,766.412-16.398h0.011c890.193-42.475,1678.609-61.692,2379.236-62.952
		c-7.033-8.602-14.061-17.1-21.1-25.788c-681.787-27.641-1446.789-45.088-2308.43-48.4c-269.747,2.875-542.369-4.51-816.129-19.852
		v-2.359c273.754,15.347,546.375,22.733,816.114,19.858h0.009c860.787,3.312,1625.181,20.715,2306.439,48.316
		c-6.977-8.62-13.947-17.149-20.932-25.872c-662.453-56.487-1403.593-110.527-2235.936-159.579
		C581.624,1818.365,292.226,1796.764,0,1767.839v-2.369c292.271,28.935,581.709,50.542,865.815,62.091h0.02
		c831.441,48.993,1571.881,102.971,2233.794,159.397c-6.8-8.495-13.615-17.315-20.414-25.888
		c-643.252-85.328-1360.763-175.942-2163.941-270.654C617.556,1661.884,311.296,1624.026,0,1580.032v-2.38
		c311.394,44.014,617.742,81.885,915.519,110.423h0.027c802.199,94.597,1518.927,185.102,2161.574,270.335
		c-6.804-8.587-13.619-17.236-20.428-25.902l-254.323-46.531c-557.084-101.929-1167.552-213.629-1837.513-335.055
		C654.289,1502.676,331.051,1446.475,0,1385.989v-2.396c331.223,60.524,654.596,116.751,965.237,165.006l0.025,0.003
		c670.97,121.61,1280.922,233.215,1837.533,335.058l251.689,46.05c-6.84-8.711-13.664-17.215-20.51-26.016
		c-604.647-142.879-1274.436-306.435-2019.526-492.271c-216.943-47.66-443.546-98.295-676.29-150.299
		C226.787,1236.243,113.966,1211.037,0,1185.66v-2.412c114.137,25.413,227.13,50.661,338.668,75.578
		c231.744,51.78,457.365,102.195,676.279,150.288l0.031,0.011c743.929,185.545,1412.744,348.866,2016.648,491.588
		c-6.643-8.55-13.301-17.273-19.955-25.912c-585.598-171.688-1231.601-371.619-1947.691-602.903
		C730.742,1175.411,373.099,1076.287,0,979.04v-2.432c373.348,97.306,731.226,196.495,1064.669,293.042l0.031,0.005
		c714.818,230.871,1359.841,430.523,1944.577,601.996c-6.571-8.541-13.155-17.321-19.73-25.939
		c-566.419-200.386-1188.701-436.6-1875.974-713.32C770.75,1007.062,395.605,883.401,0,766.202v-2.458
		c395.907,117.273,771.328,241.017,1114.384,366.432l0.04,0.017c685.892,276.156,1307.046,511.981,1872.524,712.101
		c-6.555-8.598-13.104-17.171-19.656-25.845c-547.279-229.128-1145.86-501.583-1804.161-823.583
		C812.121,835.365,419.222,685.197,0,547.273v-2.479C419.586,682.818,812.818,833.095,1164.106,990.72l0.043,0.022
		c656.768,321.249,1254.062,593.168,1800.289,821.957c-6.533-8.651-13.045-17.014-19.585-25.747
		c-528.095-257.868-1102.917-566.488-1732.142-933.604C855.016,660.212,444.134,481.588,0,322.37v-2.501
		C444.548,479.203,855.823,657.967,1213.832,851.27l0.031,0.017c627.521,366.123,1200.892,674.027,1727.8,931.468
		c-6.123-8.186-12.265-16.775-18.392-25.029c-509.037-286.582-1060.506-631.595-1660.999-1043.923
		C899.62,481.522,470.314,272.778,0,91.982v-2.515c470.807,180.93,900.557,389.856,1263.552,622.358l0.029,0.015
		c598.657,411.073,1148.561,755.201,1656.265,1041.22c-6.024-8.133-12.063-16.429-18.092-24.626
		c-489.941-315.198-1018.097-696.691-1589.901-1154.163C1029.118,361.661,697.155,169.706,331.078,0h5.575
		c364.421,169.254,694.935,360.573,976.609,572.383l0.029,0.028c569.728,455.814,1096.086,836.136,1584.496,1150.622
		c-5.909-8.055-11.817-16.035-17.735-24.153c-470.832-343.784-975.563-761.672-1518.622-1264.156
		C1183.05,278.433,980.842,133.487,759.702,0h4.54c219.963,132.998,421.15,277.36,598.738,432.949l0.022,0.026
		c540.661,500.265,1043.277,916.57,1512.296,1259.437c-5.768-7.93-11.516-15.549-17.287-23.543
		c-451.644-372.316-932.802-826.447-1447.022-1373.715C1309.245,191.843,1198.005,93.514,1078.64,0h3.818
		c118.558,93.029,229.083,190.818,330.228,293.519l0.02,0.02c511.524,544.399,990.278,996.477,1439.83,1367.632
		c-5.116-7.102-10.25-14.507-15.37-21.658c-432.808-401.016-890.711-891.432-1376.57-1483.889
		C1415.264,102.465,1367.603,50.618,1317.876,0h3.327c49.175,50.128,96.31,101.47,141.185,154.094l0.013,0.016
		c482.691,588.595,937.792,1076.492,1368.08,1475.988c-4.842-6.782-9.689-13.651-14.534-20.472
		C2402.058,1179.868,1967.56,653.499,1510.188,16.071c-3.995-5.401-8.165-10.697-12.198-16.071h2.957
		c3.679,4.905,7.485,9.739,11.133,14.663l0.011,0.017c453.411,631.919,884.376,1154.857,1295.01,1582.483
		c-4.201-5.936-8.398-11.778-12.597-17.747C2423.708,1148.93,2038.667,626.876,1638.054,0h2.791
		c394.396,617.055,773.707,1132.532,1139.15,1558.981c-2.576-3.687-5.156-7.286-7.737-10.982
		C2443.037,1121.314,2104.761,609.108,1756.883,0h2.728c337.142,590.138,665.226,1088.975,984.812,1507.462
		C2454.101,1086.865,2158.87,587.756,1858.678,0h2.625c309.536,606.05,613.787,1118.028,912.793,1546.515
		c15.07,19.532,30.074,38.422,45.108,57.596c14.993,17.284,29.976,34.48,44.927,51.474c15.135,15.508,30.319,31.25,45.395,46.498
		c18.013,16.389,36.105,33.048,54.033,49.135c17.247,13.878,34.681,28.263,51.845,41.905c17.904,12.719,36.107,26.081,53.917,38.579
		c20.501,12.795,41.091,25.731,61.462,38.288c20.621,11.232,41.104,22.277,61.579,33.302c20.667,9.75,41.055,19.191,61.565,28.773
		c20.838,8.425,41.458,16.665,62.135,24.951c21.21,7.258,42.503,14.57,63.538,21.714c22.048,6.296,44.574,12.811,66.45,19.018
		c23.92,5.547,47.955,11.136,71.689,16.622l69.269,12.635c24.317,3.323,48.541,6.63,72.631,9.931
		c24.499,2.291,48.885,4.582,73.149,6.875c25.488,1.358,50.576,2.76,75.761,4.144c26.18,0.406,52.076,0.863,77.938,1.329
		c25.508-0.5,50.771-0.938,76.111-1.391c27.685-1.468,54.869-2.77,82.251-4.141c341.615-28.792,659.306-48.107,955.151-59.138v2.271
		c-276.747,10.316-572.52,27.857-889.227,53.66c316.891-15.002,612.648-22.97,889.227-24.866v2.348
		c-295.686,2.026-613.333,11.01-955.227,28.09c-1.751,0.147-3.526,0.308-5.275,0.454c344.114-5.027,663.46-3.469,960.502,3.613v2.35
		c-306.545-7.312-636.939-8.714-993.699-3.088l-19.688,1.707c364.504,7.51,701.329,20.337,1013.387,37.417v2.402
		c-318.434-17.441-662.668-30.438-1035.763-37.881c-8.454,0.73-16.888,1.443-25.42,2.203
		c383.023,22.148,735.643,47.644,1061.183,75.536v2.362c-330.154-28.288-688.141-54.119-1077.477-76.487
		c-9.615,0.817-19.195,1.62-28.987,2.51c400.635,38.887,768.181,78.403,1106.464,117.788v2.375
		c-341.841-39.802-713.549-79.734-1119.108-119.021c-10.043,0.948-20.264,1.958-30.251,2.881
		c417.312,57.766,799.033,112.572,1149.359,163.994v2.385c-353.173-51.837-738.272-107.123-1159.564-165.406
		c-10.781,1.019-21.618,2.067-32.37,3.083c433.911,78.974,829.599,150.376,1191.934,214.305v2.396
		c-364.73-64.351-763.276-136.284-1200.572-215.884c-11.203,1.062-22.418,2.129-33.664,3.208
		c450.308,102.669,859.883,191.949,1234.235,268.711v2.401c-376.423-77.183-788.472-167.026-1241.701-270.403
		c-11.64,1.104-23.23,2.187-34.973,3.333c466.664,129.077,890.166,237.528,1276.673,327.296v2.432
		c-388.323-90.186-814.013-199.229-1283.276-329.104c-11.848,1.13-23.542,2.198-35.542,3.386
		c482.675,158.327,920.025,287.17,1318.818,389.933v2.432c-400.411-103.164-839.698-232.627-1324.678-391.809
		c-11.933,1.204-24.136,2.51-36.06,3.714c498.404,190.663,949.524,341.024,1360.738,456.441v2.447
		c-412.647-115.808-865.472-266.789-1365.903-458.352c-12.27,1.255-24.703,2.572-36.979,3.827
		c513.916,226.363,978.889,399.304,1402.883,526.802v2.452c-425.295-127.858-891.821-301.444-1407.573-528.77
		c-12.294,1.266-24.645,2.552-36.981,3.833C4084.221,2357.764,4562.928,2554.144,5000,2692.8v2.567
		c-438.3-139.007-918.469-336.08-1448.984-602.588c-12.431,1.281-24.79,2.541-37.304,3.857
		c543.102,308.248,1035.604,528.861,1486.288,677.477v2.558c-451.846-148.966-945.681-370.23-1490.386-679.606
		c-12.624,1.312-25.055,2.552-37.802,3.91c556.869,355.068,1063.239,600.325,1528.188,757.195v2.583
		c-466.032-157.168-973.657-403.1-1532.017-759.381c-12.595,1.354-25.306,2.75-37.95,4.124
		c537.426,382.961,1030.914,645.183,1487.956,810.505h-7.443c-455.998-165.802-948.225-427.981-1484.102-810.11
		c-12.644,1.391-25.53,2.875-38.181,4.266c464.178,368.088,898.235,630.29,1306.589,805.845h-6.362
		c-407.511-175.894-840.599-438.027-1303.636-805.465c-12.882,1.423-25.877,2.891-38.804,4.333
		c404.478,355.793,788.53,617.629,1154.639,801.132h-5.441c-365.458-183.742-748.771-445.484-1152.408-800.772
		c-13.063,1.453-26.093,2.895-39.228,4.38c355.041,345.533,696.579,606.625,1025.927,796.392h-4.784
		c-328.818-189.935-669.782-450.937-1024.182-796.055c-12.985,1.453-25.792,2.839-38.869,4.338
		c313.461,336.723,618.489,596.992,915.614,791.716h-4.56c-296.636-194.881-601.137-455.092-914.022-791.388
		c-13.039,1.484-25.925,2.906-39.06,4.431c277.944,329.052,551.209,588.179,819.871,786.956h-4.098
		c-268.261-198.865-541.105-457.925-818.604-786.619c-759.137,88.036-1620.012,217.53-2599.085,397.965
		c-207.626,38.266-413.64,68.456-617.76,91.698V2616.674z"/>
</g>
</svg>
